<svg xmlns="http://www.w3.org/2000/svg" viewBox="0 0 120 120" width="120" height="120">
  <defs>
    <clipPath id="circ">
      <circle cx="60" cy="60" r="58"/>
    </clipPath>
    <clipPath id="headClip">
      <ellipse cx="60" cy="42" rx="24" ry="28"/>
    </clipPath>
  </defs>

  <!-- Background -->
  <circle cx="60" cy="60" r="58" fill="#E8FAF5"/>
  <circle cx="60" cy="60" r="58" fill="none" stroke="#2A9D8F" stroke-width="3"/>

  <g clip-path="url(#circ)">
    
  <!-- body -->
  <ellipse cx="60" cy="112" rx="26" ry="36" fill="#2A9D8F"/>
  <ellipse cx="60" cy="110" rx="22" ry="32" fill="#1A7D72"/>
  <!-- collar -->
  <path d="M44,96 Q60,108 76,96" fill="#E8FAF5"/>
  <!-- neck -->
  <rect x="54" y="70" width="12" height="10" rx="4" fill="#F5C18E"/>
  
    <!-- head base -->
    <ellipse cx="60" cy="44" rx="22" ry="26" fill="#F5C18E"/>
    
  <circle cx="38" cy="46" r="5" fill="#F5C18E"/>
  <circle cx="38" cy="46" r="3" fill="#F5C18E" opacity="0.5"/>
  <circle cx="82" cy="46" r="5" fill="#F5C18E"/>
  <circle cx="82" cy="46" r="3" fill="#F5C18E" opacity="0.5"/>
  
    <!-- hair -->
    <ellipse cx="60" cy="24" rx="19" ry="8" fill="#C0A060"/>
  <circle cx="60" cy="14" r="10" fill="#C0A060"/>
    <!-- face features -->
    <ellipse cx="51" cy="44" rx="5" ry="2.5" fill="white"/>
  <ellipse cx="69" cy="44" rx="5" ry="2.5" fill="white"/>
  <circle cx="51" cy="44" r="2.2" fill="#8B4513"/>
  <circle cx="69" cy="44" r="2.2" fill="#8B4513"/>
  <circle cx="52" cy="43.2" r="1" fill="white"/>
  <circle cx="70" cy="43.2" r="1" fill="white"/>
    <ellipse cx="60" cy="52" rx="2.5" ry="1.8" fill="#F5C18E" opacity="0.7" stroke="#F5C18E" stroke-width="0.5"/>
    <path d="M53,61 Q60,65 67,61" stroke="#C4726A" stroke-width="1.8" fill="none" stroke-linecap="round"/>
    <ellipse cx="46" cy="52" rx="5" ry="3" fill="#ff9999" opacity="0.3"/>
       <ellipse cx="74" cy="52" rx="5" ry="3" fill="#ff9999" opacity="0.3"/>
    <!-- accessory -->
    
  </g>

  <!-- role badge -->
  <circle cx="88" cy="88" r="16" fill="#2A9D8F" opacity="0.95"/>
  <text x="88" y="93" text-anchor="middle" font-size="14" fill="white" font-family="sans-serif">📐</text>
</svg>