<svg xmlns="http://www.w3.org/2000/svg" viewBox="0 0 120 120" width="120" height="120">
  <defs>
    <clipPath id="circ">
      <circle cx="60" cy="60" r="58"/>
    </clipPath>
    <clipPath id="headClip">
      <ellipse cx="60" cy="42" rx="24" ry="28"/>
    </clipPath>
  </defs>

  <!-- Background -->
  <circle cx="60" cy="60" r="58" fill="#F5F0FF"/>
  <circle cx="60" cy="60" r="58" fill="none" stroke="#6D28D9" stroke-width="3"/>

  <g clip-path="url(#circ)">
    
  <!-- body -->
  <ellipse cx="60" cy="112" rx="26" ry="36" fill="#6D28D9"/>
  <ellipse cx="60" cy="110" rx="22" ry="32" fill="#5014B8"/>
  <!-- collar -->
  <path d="M44,96 Q60,108 76,96" fill="#F5F0FF"/>
  <!-- neck -->
  <rect x="54" y="70" width="12" height="10" rx="4" fill="#FDDBB4"/>
  
    <!-- head base -->
    <ellipse cx="60" cy="44" rx="22" ry="26" fill="#FDDBB4"/>
    
  <circle cx="38" cy="46" r="5" fill="#FDDBB4"/>
  <circle cx="38" cy="46" r="3" fill="#FDDBB4" opacity="0.5"/>
  <circle cx="82" cy="46" r="5" fill="#FDDBB4"/>
  <circle cx="82" cy="46" r="3" fill="#FDDBB4" opacity="0.5"/>
  
    <!-- hair -->
    <ellipse cx="60" cy="20" rx="22" ry="13" fill="#5B5BCC"/>
  <rect x="37" y="20" width="11" height="42" rx="5" fill="#5B5BCC"/>
  <rect x="72" y="20" width="11" height="42" rx="5" fill="#5B5BCC"/>
    <!-- face features -->
    <circle cx="51" cy="44" r="4.5" fill="white"/>
  <circle cx="69" cy="44" r="4.5" fill="white"/>
  <circle cx="51" cy="44" r="3" fill="#2a3a5c"/>
  <circle cx="69" cy="44" r="3" fill="#2a3a5c"/>
  <circle cx="52" cy="43" r="1.2" fill="white"/>
  <circle cx="70" cy="43" r="1.2" fill="white"/>
    <ellipse cx="60" cy="52" rx="2.5" ry="1.8" fill="#FDDBB4" opacity="0.7" stroke="#FDDBB4" stroke-width="0.5"/>
    <path d="M53,61 Q60,65 67,61" stroke="#C4726A" stroke-width="1.8" fill="none" stroke-linecap="round"/>
    
    <!-- accessory -->
    
  </g>

  <!-- role badge -->
  <circle cx="88" cy="88" r="16" fill="#6D28D9" opacity="0.95"/>
  <text x="88" y="93" text-anchor="middle" font-size="14" fill="white" font-family="sans-serif">🐑</text>
</svg>