<svg xmlns="http://www.w3.org/2000/svg" viewBox="0 0 120 120" width="120" height="120">
  <defs>
    <clipPath id="circ">
      <circle cx="60" cy="60" r="58"/>
    </clipPath>
    <clipPath id="headClip">
      <ellipse cx="60" cy="42" rx="24" ry="28"/>
    </clipPath>
  </defs>

  <!-- Background -->
  <circle cx="60" cy="60" r="58" fill="#F0F9F0"/>
  <circle cx="60" cy="60" r="58" fill="none" stroke="#2E8B57" stroke-width="3"/>

  <g clip-path="url(#circ)">
    
  <!-- body -->
  <ellipse cx="60" cy="112" rx="26" ry="36" fill="#2E8B57"/>
  <ellipse cx="60" cy="110" rx="22" ry="32" fill="#1E6B42"/>
  <!-- collar -->
  <path d="M44,96 Q60,108 76,96" fill="#F0F9F0"/>
  <!-- neck -->
  <rect x="54" y="70" width="12" height="10" rx="4" fill="#A0693A"/>
  
    <!-- head base -->
    <ellipse cx="60" cy="44" rx="22" ry="26" fill="#A0693A"/>
    
  <circle cx="38" cy="46" r="5" fill="#A0693A"/>
  <circle cx="38" cy="46" r="3" fill="#A0693A" opacity="0.5"/>
  <circle cx="82" cy="46" r="5" fill="#A0693A"/>
  <circle cx="82" cy="46" r="3" fill="#A0693A" opacity="0.5"/>
  
    <!-- hair -->
    <ellipse cx="60" cy="20" rx="22" ry="13" fill="#B8860B"/>
  <rect x="37" y="20" width="11" height="42" rx="5" fill="#B8860B"/>
  <rect x="72" y="20" width="11" height="42" rx="5" fill="#B8860B"/>
    <!-- face features -->
    <circle cx="51" cy="44" r="4.5" fill="white"/>
  <circle cx="69" cy="44" r="4.5" fill="white"/>
  <circle cx="51" cy="44" r="3" fill="#2E8B57"/>
  <circle cx="69" cy="44" r="3" fill="#2E8B57"/>
  <circle cx="52" cy="43" r="1.2" fill="white"/>
  <circle cx="70" cy="43" r="1.2" fill="white"/>
    <ellipse cx="60" cy="52" rx="2.5" ry="1.8" fill="#A0693A" opacity="0.7" stroke="#A0693A" stroke-width="0.5"/>
    <path d="M54,60 L66,60" stroke="#C4726A" stroke-width="2" stroke-linecap="round"/>
    
    <!-- accessory -->
    <path d="M43,44 Q51,50 59,44" stroke="#555" stroke-width="2" fill="none"/>
  <path d="M61,44 Q69,50 77,44" stroke="#555" stroke-width="2" fill="none"/>
  <line x1="59" y1="44" x2="61" y2="44" stroke="#555" stroke-width="1.5"/>
  <line x1="43" y1="44" x2="41" y2="46" stroke="#555" stroke-width="1.5"/>
  <line x1="77" y1="44" x2="79" y2="46" stroke="#555" stroke-width="1.5"/>
  </g>

  <!-- role badge -->
  <circle cx="88" cy="88" r="16" fill="#2E8B57" opacity="0.95"/>
  <text x="88" y="93" text-anchor="middle" font-size="14" fill="white" font-family="sans-serif">📊</text>
</svg>