<svg xmlns="http://www.w3.org/2000/svg" viewBox="0 0 120 120" width="120" height="120">
  <defs>
    <clipPath id="circ">
      <circle cx="60" cy="60" r="58"/>
    </clipPath>
    <clipPath id="headClip">
      <ellipse cx="60" cy="42" rx="24" ry="28"/>
    </clipPath>
  </defs>

  <!-- Background -->
  <circle cx="60" cy="60" r="58" fill="#FFFBEC"/>
  <circle cx="60" cy="60" r="58" fill="none" stroke="#8B6914" stroke-width="3"/>

  <g clip-path="url(#circ)">
    
  <!-- body -->
  <ellipse cx="60" cy="112" rx="26" ry="36" fill="#8B6914"/>
  <ellipse cx="60" cy="110" rx="22" ry="32" fill="#6B4F10"/>
  <!-- collar -->
  <path d="M44,96 Q60,108 76,96" fill="#FFFBEC"/>
  <!-- neck -->
  <rect x="54" y="70" width="12" height="10" rx="4" fill="#6B3F2A"/>
  
    <!-- head base -->
    <ellipse cx="60" cy="44" rx="22" ry="26" fill="#6B3F2A"/>
    
  <circle cx="38" cy="46" r="5" fill="#6B3F2A"/>
  <circle cx="38" cy="46" r="3" fill="#6B3F2A" opacity="0.5"/>
  <circle cx="82" cy="46" r="5" fill="#6B3F2A"/>
  <circle cx="82" cy="46" r="3" fill="#6B3F2A" opacity="0.5"/>
  
    <!-- hair -->
    <ellipse cx="60" cy="18" rx="24" ry="14" fill="#C0A060"/>
  <circle cx="38" cy="25" r="9" fill="#C0A060"/>
  <circle cx="82" cy="25" r="9" fill="#C0A060"/>
  <circle cx="48" cy="14" r="8" fill="#C0A060"/>
  <circle cx="72" cy="14" r="8" fill="#C0A060"/>
  <circle cx="60" cy="11" r="9" fill="#C0A060"/>
    <!-- face features -->
    <ellipse cx="51" cy="44" rx="5" ry="2.5" fill="white"/>
  <ellipse cx="69" cy="44" rx="5" ry="2.5" fill="white"/>
  <circle cx="51" cy="44" r="2.2" fill="#3B7DD8"/>
  <circle cx="69" cy="44" r="2.2" fill="#3B7DD8"/>
  <circle cx="52" cy="43.2" r="1" fill="white"/>
  <circle cx="70" cy="43.2" r="1" fill="white"/>
    <ellipse cx="60" cy="52" rx="2.5" ry="1.8" fill="#6B3F2A" opacity="0.7" stroke="#6B3F2A" stroke-width="0.5"/>
    <path d="M52,60 Q60,66 68,60" stroke="#C4726A" stroke-width="2" fill="none" stroke-linecap="round"/>
    
    <!-- accessory -->
    
  </g>

  <!-- role badge -->
  <circle cx="88" cy="88" r="16" fill="#8B6914" opacity="0.95"/>
  <text x="88" y="93" text-anchor="middle" font-size="14" fill="white" font-family="sans-serif">⚡</text>
</svg>