<svg xmlns="http://www.w3.org/2000/svg" viewBox="0 0 120 120" width="120" height="120">
  <defs>
    <clipPath id="circ">
      <circle cx="60" cy="60" r="58"/>
    </clipPath>
    <clipPath id="headClip">
      <ellipse cx="60" cy="42" rx="24" ry="28"/>
    </clipPath>
  </defs>

  <!-- Background -->
  <circle cx="60" cy="60" r="58" fill="#EEF9FF"/>
  <circle cx="60" cy="60" r="58" fill="none" stroke="#2196A8" stroke-width="3"/>

  <g clip-path="url(#circ)">
    
  <!-- body -->
  <ellipse cx="60" cy="112" rx="26" ry="36" fill="#2196A8"/>
  <ellipse cx="60" cy="110" rx="22" ry="32" fill="#16707A"/>
  <!-- collar -->
  <path d="M44,96 Q60,108 76,96" fill="#EEF9FF"/>
  <!-- neck -->
  <rect x="54" y="70" width="12" height="10" rx="4" fill="#FFE0C8"/>
  
    <!-- head base -->
    <ellipse cx="60" cy="44" rx="22" ry="26" fill="#FFE0C8"/>
    
  <circle cx="38" cy="46" r="5" fill="#FFE0C8"/>
  <circle cx="38" cy="46" r="3" fill="#FFE0C8" opacity="0.5"/>
  <circle cx="82" cy="46" r="5" fill="#FFE0C8"/>
  <circle cx="82" cy="46" r="3" fill="#FFE0C8" opacity="0.5"/>
  
    <!-- hair -->
    <ellipse cx="60" cy="22" rx="18" ry="9" fill="#D4D4D4"/>
  <rect x="55" y="6" width="10" height="20" rx="5" fill="#D4D4D4"/>
    <!-- face features -->
    <ellipse cx="51" cy="44" rx="5.5" ry="4" fill="white"/>
  <ellipse cx="69" cy="44" rx="5.5" ry="4" fill="white"/>
  <circle cx="51" cy="44" r="3" fill="#5B2D8E"/>
  <circle cx="69" cy="44" r="3" fill="#5B2D8E"/>
  <circle cx="52.5" cy="43" r="1.2" fill="white"/>
  <circle cx="70.5" cy="43" r="1.2" fill="white"/>
    <ellipse cx="60" cy="52" rx="2.5" ry="1.8" fill="#FFE0C8" opacity="0.7" stroke="#FFE0C8" stroke-width="0.5"/>
    <path d="M54,60 L66,60" stroke="#C4726A" stroke-width="2" stroke-linecap="round"/>
    
    <!-- accessory -->
    
  </g>

  <!-- role badge -->
  <circle cx="88" cy="88" r="16" fill="#2196A8" opacity="0.95"/>
  <text x="88" y="93" text-anchor="middle" font-size="14" fill="white" font-family="sans-serif">🚣</text>
</svg>